<svg xmlns="http://www.w3.org/2000/svg" xmlns:xlink="http://www.w3.org/1999/xlink" width="500" zoomAndPan="magnify" viewBox="0 0 375 374.999991" height="500" preserveAspectRatio="xMidYMid meet" version="1.0"><defs><clipPath id="8dcd0775b7"><path d="M 101.769531 66.234375 L 268.269531 66.234375 L 268.269531 305 L 101.769531 305 Z M 101.769531 66.234375 " clip-rule="nonzero"/></clipPath><clipPath id="7c6ce9dccb"><path d="M 113.6875 79.347656 L 256.1875 79.347656 L 256.1875 284 L 113.6875 284 Z M 113.6875 79.347656 " clip-rule="nonzero"/></clipPath><clipPath id="8b97ae10a6"><path d="M 130.34375 96.445312 L 239.84375 96.445312 L 239.84375 253 L 130.34375 253 Z M 130.34375 96.445312 " clip-rule="nonzero"/></clipPath><clipPath id="0b191bf248"><path d="M 141.71875 108.09375 L 227.96875 108.09375 L 227.96875 232 L 141.71875 232 Z M 141.71875 108.09375 " clip-rule="nonzero"/></clipPath><clipPath id="56ea126f47"><path d="M 127 117 L 295 117 L 295 198 L 127 198 Z M 127 117 " clip-rule="nonzero"/></clipPath><clipPath id="849734c0cd"><path d="M 127.8125 164.761719 L 284.105469 117.417969 L 294.015625 150.132812 L 137.722656 197.476562 Z M 127.8125 164.761719 " clip-rule="nonzero"/></clipPath><clipPath id="4273d700b7"><path d="M 129 160 L 241 160 L 241 197 L 129 197 Z M 129 160 " clip-rule="nonzero"/></clipPath><clipPath id="3ad807d5e2"><path d="M 129.527344 168.109375 L 238.570312 160.777344 L 240.453125 188.773438 L 131.410156 196.105469 Z M 129.527344 168.109375 " clip-rule="nonzero"/></clipPath><clipPath id="fe59521cd3"><path d="M 143.203125 181.503906 L 226.773438 181.503906 L 226.773438 215.210938 L 143.203125 215.210938 Z M 143.203125 181.503906 " clip-rule="nonzero"/></clipPath><clipPath id="9d1999757d"><path d="M 154.808594 210.515625 L 212.660156 210.515625 L 212.660156 232.300781 L 154.808594 232.300781 Z M 154.808594 210.515625 " clip-rule="nonzero"/></clipPath><clipPath id="042ed2b075"><path d="M 165.472656 227.285156 L 204.503906 227.285156 L 204.503906 255.703125 L 165.472656 255.703125 Z M 165.472656 227.285156 " clip-rule="nonzero"/></clipPath><clipPath id="b93d6b9b78"><path d="M 142 138 L 280 138 L 280 209 L 142 209 Z M 142 138 " clip-rule="nonzero"/></clipPath><clipPath id="1bf57ddf91"><path d="M 153.273438 114.742188 L 279.550781 141.097656 L 261.46875 227.730469 L 135.191406 201.375 Z M 153.273438 114.742188 " clip-rule="nonzero"/></clipPath><clipPath id="ed29d03722"><path d="M 153.273438 114.742188 L 279.550781 141.097656 L 261.46875 227.730469 L 135.191406 201.375 Z M 153.273438 114.742188 " clip-rule="nonzero"/></clipPath></defs><rect x="-37.5" width="450" fill="#ffffff" y="-37.499999" height="449.999989" fill-opacity="1"/><rect x="-37.5" width="450" fill="#17273d" y="-37.499999" height="449.999989" fill-opacity="1"/><g clip-path="url(#8dcd0775b7)"><path fill="#f5fff9" d="M 184.988281 66.3125 C 230.945312 66.3125 268.203125 103.570312 268.203125 149.53125 C 268.203125 165.523438 263.691406 180.453125 255.871094 193.136719 C 246.492188 208.671875 237.113281 224.207031 227.738281 239.746094 C 216.3125 258.308594 207.070312 273.335938 195.652344 291.902344 C 185.582031 308.273438 184.902344 308.675781 174.777344 292.21875 C 163.414062 273.746094 153.863281 258.21875 142.5 239.746094 C 133.140625 224.382812 123.785156 209.019531 114.429688 193.660156 C 106.414062 180.867188 101.769531 165.742188 101.769531 149.53125 C 101.769531 103.570312 139.027344 66.3125 184.988281 66.3125 Z M 184.988281 108.035156 C 205.589844 108.035156 222.292969 124.738281 222.292969 145.339844 C 222.292969 165.945312 205.589844 182.644531 184.988281 182.644531 C 164.382812 182.644531 147.679688 165.945312 147.679688 145.339844 C 147.679688 124.738281 164.382812 108.035156 184.988281 108.035156 Z M 184.988281 108.035156 " fill-opacity="1" fill-rule="evenodd"/></g><g clip-path="url(#7c6ce9dccb)"><path fill="#17273d" d="M 184.988281 79.414062 C 224.363281 79.414062 256.285156 111.335938 256.285156 150.710938 C 256.285156 164.414062 252.417969 177.207031 245.71875 188.074219 C 237.683594 201.382812 229.648438 214.695312 221.613281 228.007812 C 211.828125 243.914062 203.910156 256.785156 194.125 272.691406 C 185.496094 286.71875 184.914062 287.0625 176.242188 272.964844 C 166.503906 257.136719 158.320312 243.832031 148.582031 228.007812 C 140.566406 214.84375 132.550781 201.683594 124.535156 188.523438 C 117.667969 177.5625 113.6875 164.601562 113.6875 150.710938 C 113.6875 111.335938 145.609375 79.414062 184.988281 79.414062 Z M 184.988281 115.160156 C 202.640625 115.160156 216.949219 129.46875 216.949219 147.121094 C 216.949219 164.777344 202.640625 179.085938 184.988281 179.085938 C 167.332031 179.085938 153.023438 164.773438 153.023438 147.121094 C 153.023438 129.46875 167.335938 115.160156 184.988281 115.160156 Z M 184.988281 115.160156 " fill-opacity="1" fill-rule="evenodd"/></g><g clip-path="url(#8b97ae10a6)"><path fill="#ffffff" d="M 184.984375 96.503906 C 215.160156 96.503906 239.625 120.964844 239.625 151.144531 C 239.625 161.644531 236.660156 171.449219 231.527344 179.773438 C 225.371094 189.976562 219.210938 200.175781 213.054688 210.378906 C 205.554688 222.566406 199.484375 232.433594 191.988281 244.625 C 185.375 255.371094 184.929688 255.636719 178.28125 244.832031 C 170.820312 232.703125 164.546875 222.507812 157.085938 210.378906 C 150.941406 200.289062 144.800781 190.203125 138.65625 180.121094 C 133.394531 171.71875 130.34375 161.789062 130.34375 151.144531 C 130.34375 120.964844 154.808594 96.503906 184.984375 96.503906 Z M 184.984375 123.898438 C 198.511719 123.898438 209.480469 134.863281 209.480469 148.390625 C 209.480469 161.921875 198.511719 172.886719 184.984375 172.886719 C 171.457031 172.886719 160.488281 161.921875 160.488281 148.390625 C 160.488281 134.863281 171.457031 123.898438 184.984375 123.898438 Z M 184.984375 123.898438 " fill-opacity="1" fill-rule="evenodd"/></g><g clip-path="url(#0b191bf248)"><path fill="#17273d" d="M 184.988281 108.132812 C 208.886719 108.132812 228.261719 127.503906 228.261719 151.402344 C 228.261719 159.71875 225.914062 167.484375 221.847656 174.078125 C 216.972656 182.15625 212.09375 190.234375 207.21875 198.316406 C 201.28125 207.96875 196.472656 215.78125 190.535156 225.4375 C 185.296875 233.949219 184.945312 234.160156 179.679688 225.601562 C 173.773438 215.996094 168.804688 207.921875 162.894531 198.316406 C 158.03125 190.328125 153.164062 182.339844 148.300781 174.351562 C 144.132812 167.699219 141.71875 159.832031 141.71875 151.402344 C 141.71875 127.503906 161.089844 108.132812 184.988281 108.132812 Z M 184.988281 129.824219 C 195.703125 129.824219 204.390625 138.511719 204.390625 149.226562 C 204.390625 159.9375 195.703125 168.625 184.988281 168.625 C 174.273438 168.625 165.589844 159.9375 165.589844 149.226562 C 165.589844 138.511719 174.277344 129.824219 184.988281 129.824219 Z M 184.988281 129.824219 " fill-opacity="1" fill-rule="evenodd"/></g><g clip-path="url(#56ea126f47)"><g clip-path="url(#849734c0cd)"><path fill="#17273d" d="M 127.8125 164.761719 L 284.109375 117.417969 L 294.019531 150.132812 L 137.722656 197.476562 Z M 127.8125 164.761719 " fill-opacity="1" fill-rule="nonzero"/></g></g><g clip-path="url(#4273d700b7)"><g clip-path="url(#3ad807d5e2)"><path fill="#17273d" d="M 129.527344 168.109375 L 238.558594 160.777344 L 240.441406 188.773438 L 131.410156 196.105469 Z M 129.527344 168.109375 " fill-opacity="1" fill-rule="nonzero"/></g></g><g clip-path="url(#fe59521cd3)"><path fill="#17273d" d="M 143.203125 181.503906 L 226.808594 181.503906 L 226.808594 215.210938 L 143.203125 215.210938 Z M 143.203125 181.503906 " fill-opacity="1" fill-rule="nonzero"/></g><g clip-path="url(#9d1999757d)"><path fill="#17273d" d="M 154.808594 210.515625 L 212.679688 210.515625 L 212.679688 232.300781 L 154.808594 232.300781 Z M 154.808594 210.515625 " fill-opacity="1" fill-rule="nonzero"/></g><g clip-path="url(#042ed2b075)"><path fill="#17273d" d="M 165.472656 227.285156 L 204.550781 227.285156 L 204.550781 255.703125 L 165.472656 255.703125 Z M 165.472656 227.285156 " fill-opacity="1" fill-rule="nonzero"/></g><g clip-path="url(#b93d6b9b78)"><g clip-path="url(#1bf57ddf91)"><g clip-path="url(#ed29d03722)"><path fill="#029791" d="M 244.292969 153.019531 C 228.234375 161.777344 214.175781 173.183594 200.71875 185.363281 C 192.679688 192.648438 184.820312 200.128906 176.90625 207.601562 C 176.300781 208.179688 175.59375 208.5625 174.78125 208.75 C 173.96875 208.941406 173.164062 208.910156 172.371094 208.660156 C 171.574219 208.40625 170.898438 207.972656 170.339844 207.351562 C 169.785156 206.730469 169.425781 206.011719 169.261719 205.191406 C 168.839844 202.90625 168.277344 200.652344 167.578125 198.433594 C 165.460938 191.90625 163.078125 185.382812 159.949219 179.296875 C 155.996094 171.683594 151.019531 168.472656 142.550781 166.109375 C 152.945312 154.046875 169.980469 159.070312 179.628906 177.375 C 180.824219 176.59375 181.957031 175.851562 183.046875 175.050781 C 200.945312 161.894531 219.234375 149.472656 240.421875 142.164062 C 249.257812 139.121094 258.292969 136.933594 267.726562 138.847656 C 271.585938 139.597656 275.1875 141.597656 279.027344 142.457031 C 272.933594 142.976562 266.957031 144.128906 261.105469 145.910156 C 255.25 147.6875 249.644531 150.058594 244.292969 153.019531 Z M 244.292969 153.019531 " fill-opacity="1" fill-rule="nonzero"/></g></g></g></svg>