<svg xmlns="http://www.w3.org/2000/svg" xmlns:xlink="http://www.w3.org/1999/xlink" width="500" zoomAndPan="magnify" viewBox="0 0 375 374.999991" height="500" preserveAspectRatio="xMidYMid meet" version="1.0"><defs><g/><clipPath id="f02651d91a"><path d="M 125.058594 50.714844 L 246.851562 50.714844 L 246.851562 225 L 125.058594 225 Z M 125.058594 50.714844 " clip-rule="nonzero"/></clipPath><clipPath id="f4ae95e2af"><path d="M 133.777344 60.304688 L 238.011719 60.304688 L 238.011719 210 L 133.777344 210 Z M 133.777344 60.304688 " clip-rule="nonzero"/></clipPath><clipPath id="93a24e6d99"><path d="M 145.960938 72.8125 L 226 72.8125 L 226 188 L 145.960938 188 Z M 145.960938 72.8125 " clip-rule="nonzero"/></clipPath><clipPath id="ef147941ba"><path d="M 154.277344 81.332031 L 217.367188 81.332031 L 217.367188 172 L 154.277344 172 Z M 154.277344 81.332031 " clip-rule="nonzero"/></clipPath><clipPath id="8d859c67f6"><path d="M 144 88 L 266 88 L 266 147 L 144 147 Z M 144 88 " clip-rule="nonzero"/></clipPath><clipPath id="303e7941b3"><path d="M 144.105469 122.785156 L 258.433594 88.152344 L 265.683594 112.085938 L 151.355469 146.714844 Z M 144.105469 122.785156 " clip-rule="nonzero"/></clipPath><clipPath id="f1d499acea"><path d="M 145 119 L 227 119 L 227 146 L 145 146 Z M 145 119 " clip-rule="nonzero"/></clipPath><clipPath id="0061dd903e"><path d="M 145.359375 125.234375 L 225.125 119.871094 L 226.5 140.347656 L 146.738281 145.714844 Z M 145.359375 125.234375 " clip-rule="nonzero"/></clipPath><clipPath id="a650634552"><path d="M 155.367188 135.03125 L 216.496094 135.03125 L 216.496094 159.6875 L 155.367188 159.6875 Z M 155.367188 135.03125 " clip-rule="nonzero"/></clipPath><clipPath id="f329a590a6"><path d="M 163.855469 156.253906 L 206.171875 156.253906 L 206.171875 172.191406 L 163.855469 172.191406 Z M 163.855469 156.253906 " clip-rule="nonzero"/></clipPath><clipPath id="0637a3277f"><path d="M 171.65625 168.519531 L 200.207031 168.519531 L 200.207031 189.304688 L 171.65625 189.304688 Z M 171.65625 168.519531 " clip-rule="nonzero"/></clipPath><clipPath id="7d98beb580"><path d="M 154 103 L 255 103 L 255 156 L 154 156 Z M 154 103 " clip-rule="nonzero"/></clipPath><clipPath id="da8c5d8ee5"><path d="M 162.730469 86.195312 L 255.101562 105.476562 L 241.875 168.847656 L 149.503906 149.566406 Z M 162.730469 86.195312 " clip-rule="nonzero"/></clipPath><clipPath id="a609d01fb5"><path d="M 162.730469 86.195312 L 255.101562 105.476562 L 241.875 168.847656 L 149.503906 149.566406 Z M 162.730469 86.195312 " clip-rule="nonzero"/></clipPath></defs><rect x="-37.5" width="450" fill="#ffffff" y="-37.499999" height="449.999989" fill-opacity="1"/><rect x="-37.5" width="450" fill="#17273d" y="-37.499999" height="449.999989" fill-opacity="1"/><g clip-path="url(#f02651d91a)"><path fill="#ffffff" d="M 185.929688 50.769531 C 219.546875 50.769531 246.800781 78.023438 246.800781 111.644531 C 246.800781 123.339844 243.5 134.265625 237.78125 143.539062 C 230.921875 154.902344 224.058594 166.269531 217.199219 177.632812 C 208.84375 191.214844 202.085938 202.203125 193.730469 215.785156 C 186.363281 227.761719 185.867188 228.054688 178.460938 216.019531 C 170.148438 202.503906 163.160156 191.144531 154.851562 177.632812 C 148.003906 166.394531 141.164062 155.160156 134.316406 143.925781 C 128.453125 134.566406 125.058594 123.5 125.058594 111.644531 C 125.058594 78.023438 152.3125 50.769531 185.929688 50.769531 Z M 185.929688 81.289062 C 201 81.289062 213.21875 93.507812 213.21875 108.578125 C 213.21875 123.648438 201 135.867188 185.929688 135.867188 C 170.859375 135.867188 158.640625 123.648438 158.640625 108.578125 C 158.640625 93.507812 170.859375 81.289062 185.929688 81.289062 Z M 185.929688 81.289062 " fill-opacity="1" fill-rule="evenodd"/></g><g clip-path="url(#f4ae95e2af)"><path fill="#17273d" d="M 185.929688 60.355469 C 214.734375 60.355469 238.082031 83.703125 238.082031 112.507812 C 238.082031 122.53125 235.253906 131.890625 230.355469 139.835938 C 224.476562 149.574219 218.597656 159.308594 212.722656 169.046875 C 205.5625 180.683594 199.769531 190.097656 192.613281 201.734375 C 186.300781 211.996094 185.875 212.246094 179.53125 201.933594 C 172.410156 190.355469 166.421875 180.625 159.300781 169.046875 C 153.4375 159.417969 147.574219 149.792969 141.710938 140.164062 C 136.683594 132.148438 133.777344 122.667969 133.777344 112.507812 C 133.777344 83.703125 157.125 60.355469 185.929688 60.355469 Z M 185.929688 86.5 C 198.84375 86.5 209.308594 96.96875 209.308594 109.882812 C 209.308594 122.796875 198.84375 133.261719 185.929688 133.261719 C 173.015625 133.261719 162.546875 122.792969 162.546875 109.882812 C 162.550781 96.96875 173.015625 86.5 185.929688 86.5 Z M 185.929688 86.5 " fill-opacity="1" fill-rule="evenodd"/></g><g clip-path="url(#93a24e6d99)"><path fill="#ffffff" d="M 185.925781 72.855469 C 208 72.855469 225.894531 90.75 225.894531 112.824219 C 225.894531 120.503906 223.726562 127.675781 219.972656 133.765625 C 215.46875 141.226562 210.964844 148.691406 206.460938 156.152344 C 200.972656 165.070312 196.535156 172.285156 191.050781 181.203125 C 186.214844 189.066406 185.886719 189.257812 181.023438 181.355469 C 175.566406 172.484375 170.976562 165.023438 165.519531 156.152344 C 161.027344 148.773438 156.535156 141.394531 152.039062 134.019531 C 148.1875 127.875 145.960938 120.609375 145.960938 112.824219 C 145.960938 90.75 163.855469 72.855469 185.925781 72.855469 Z M 185.925781 92.894531 C 195.824219 92.894531 203.84375 100.914062 203.84375 110.8125 C 203.84375 120.707031 195.824219 128.730469 185.925781 128.730469 C 176.03125 128.730469 168.007812 120.707031 168.007812 110.8125 C 168.011719 100.914062 176.03125 92.894531 185.925781 92.894531 Z M 185.925781 92.894531 " fill-opacity="1" fill-rule="evenodd"/></g><g clip-path="url(#ef147941ba)"><path fill="#17273d" d="M 185.929688 81.359375 C 203.414062 81.359375 217.585938 95.53125 217.585938 113.015625 C 217.585938 119.097656 215.867188 124.777344 212.894531 129.601562 C 209.328125 135.507812 205.757812 141.417969 202.191406 147.328125 C 197.847656 154.390625 194.332031 160.105469 189.988281 167.167969 C 186.15625 173.394531 185.898438 173.546875 182.046875 167.289062 C 177.726562 160.261719 174.09375 154.355469 169.769531 147.328125 C 166.210938 141.484375 162.652344 135.640625 159.09375 129.800781 C 156.042969 124.933594 154.277344 119.179688 154.277344 113.015625 C 154.277344 95.53125 168.449219 81.359375 185.929688 81.359375 Z M 185.929688 97.230469 C 193.769531 97.230469 200.121094 103.582031 200.121094 111.421875 C 200.121094 119.257812 193.769531 125.609375 185.929688 125.609375 C 178.09375 125.609375 171.742188 119.257812 171.742188 111.421875 C 171.742188 103.582031 178.09375 97.230469 185.929688 97.230469 Z M 185.929688 97.230469 " fill-opacity="1" fill-rule="evenodd"/></g><g clip-path="url(#8d859c67f6)"><g clip-path="url(#303e7941b3)"><path fill="#17273d" d="M 144.105469 122.785156 L 258.433594 88.152344 L 265.683594 112.085938 L 151.355469 146.714844 Z M 144.105469 122.785156 " fill-opacity="1" fill-rule="nonzero"/></g></g><g clip-path="url(#f1d499acea)"><g clip-path="url(#0061dd903e)"><path fill="#17273d" d="M 145.359375 125.234375 L 225.117188 119.871094 L 226.492188 140.347656 L 146.738281 145.714844 Z M 145.359375 125.234375 " fill-opacity="1" fill-rule="nonzero"/></g></g><g clip-path="url(#a650634552)"><path fill="#17273d" d="M 155.367188 135.03125 L 216.523438 135.03125 L 216.523438 159.6875 L 155.367188 159.6875 Z M 155.367188 135.03125 " fill-opacity="1" fill-rule="nonzero"/></g><g clip-path="url(#f329a590a6)"><path fill="#17273d" d="M 163.855469 156.253906 L 206.1875 156.253906 L 206.1875 172.191406 L 163.855469 172.191406 Z M 163.855469 156.253906 " fill-opacity="1" fill-rule="nonzero"/></g><g clip-path="url(#0637a3277f)"><path fill="#17273d" d="M 171.65625 168.519531 L 200.238281 168.519531 L 200.238281 189.304688 L 171.65625 189.304688 Z M 171.65625 168.519531 " fill-opacity="1" fill-rule="nonzero"/></g><g clip-path="url(#7d98beb580)"><g clip-path="url(#da8c5d8ee5)"><g clip-path="url(#a609d01fb5)"><path fill="#029791" d="M 229.308594 114.195312 C 217.5625 120.601562 207.28125 128.945312 197.4375 137.855469 C 191.558594 143.183594 185.804688 148.65625 180.015625 154.121094 C 179.578125 154.542969 179.058594 154.824219 178.464844 154.960938 C 177.871094 155.101562 177.28125 155.078125 176.699219 154.894531 C 176.117188 154.710938 175.625 154.390625 175.214844 153.9375 C 174.808594 153.484375 174.546875 152.957031 174.425781 152.359375 C 174.117188 150.6875 173.707031 149.039062 173.195312 147.414062 C 171.648438 142.640625 169.902344 137.867188 167.613281 133.417969 C 164.722656 127.847656 161.082031 125.5 154.886719 123.769531 C 162.488281 114.949219 174.953125 118.621094 182.011719 132.011719 C 182.882812 131.441406 183.710938 130.898438 184.511719 130.308594 C 197.601562 120.6875 210.980469 111.601562 226.476562 106.253906 C 232.941406 104.027344 239.550781 102.429688 246.449219 103.828125 C 249.277344 104.378906 251.910156 105.84375 254.71875 106.46875 C 250.261719 106.851562 245.890625 107.691406 241.609375 108.996094 C 237.324219 110.296875 233.226562 112.03125 229.308594 114.195312 Z M 229.308594 114.195312 " fill-opacity="1" fill-rule="nonzero"/></g></g></g><g fill="#ffffff" fill-opacity="1"><g transform="translate(84.847185, 278.536506)"><g><path d="M 3.953125 0 C 3.648438 0 3.5 -0.148438 3.5 -0.453125 L 3.5 -27.953125 C 3.5 -28.253906 3.648438 -28.40625 3.953125 -28.40625 L 16.453125 -28.40625 C 17.953125 -28.40625 19.304688 -28.019531 20.515625 -27.25 C 21.734375 -26.476562 22.703125 -25.398438 23.421875 -24.015625 C 24.140625 -22.640625 24.5 -21.050781 24.5 -19.25 C 24.5 -17.445312 24.140625 -15.863281 23.421875 -14.5 C 22.703125 -13.132812 21.734375 -12.078125 20.515625 -11.328125 C 19.304688 -10.578125 17.953125 -10.203125 16.453125 -10.203125 L 7.5 -10.203125 L 7.5 -0.453125 C 7.5 -0.148438 7.347656 0 7.046875 0 Z M 7.5 -13.75 L 15.90625 -13.75 C 17.164062 -13.75 18.242188 -14.191406 19.140625 -15.078125 C 20.046875 -15.960938 20.5 -17.335938 20.5 -19.203125 C 20.5 -21.066406 20.046875 -22.429688 19.140625 -23.296875 C 18.242188 -24.160156 17.164062 -24.59375 15.90625 -24.59375 L 7.5 -24.59375 Z M 7.5 -13.75 "/></g></g></g><g fill="#ffffff" fill-opacity="1"><g transform="translate(110.343235, 278.536506)"><g><path d="M 5.5 -22.25 C 4.832031 -22.25 4.238281 -22.5 3.71875 -23 C 3.207031 -23.5 2.953125 -24.097656 2.953125 -24.796875 C 2.953125 -25.492188 3.207031 -26.101562 3.71875 -26.625 C 4.238281 -27.144531 4.832031 -27.40625 5.5 -27.40625 C 6.226562 -27.40625 6.851562 -27.144531 7.375 -26.625 C 7.894531 -26.101562 8.15625 -25.492188 8.15625 -24.796875 C 8.15625 -24.097656 7.894531 -23.5 7.375 -23 C 6.851562 -22.5 6.226562 -22.25 5.5 -22.25 Z M 3.953125 0 C 3.648438 0 3.5 -0.148438 3.5 -0.453125 L 3.5 -19.546875 C 3.5 -19.847656 3.648438 -20 3.953125 -20 L 7.046875 -20 C 7.347656 -20 7.5 -19.847656 7.5 -19.546875 L 7.5 -0.453125 C 7.5 -0.148438 7.347656 0 7.046875 0 Z M 3.953125 0 "/></g></g></g><g fill="#ffffff" fill-opacity="1"><g transform="translate(121.341533, 278.536506)"><g><path d="M 12.046875 0.25 C 10.179688 0.25 8.460938 -0.210938 6.890625 -1.140625 C 5.328125 -2.078125 4.078125 -3.328125 3.140625 -4.890625 C 2.210938 -6.460938 1.75 -8.195312 1.75 -10.09375 C 1.75 -11.96875 2.210938 -13.671875 3.140625 -15.203125 C 4.078125 -16.734375 5.335938 -17.957031 6.921875 -18.875 C 8.503906 -19.789062 10.226562 -20.25 12.09375 -20.25 C 14.5625 -20.25 16.726562 -19.5 18.59375 -18 C 18.695312 -17.894531 18.75 -17.8125 18.75 -17.75 C 18.75 -17.6875 18.738281 -17.628906 18.71875 -17.578125 C 18.707031 -17.523438 18.6875 -17.46875 18.65625 -17.40625 L 17.25 -15.59375 C 17.113281 -15.46875 16.976562 -15.40625 16.84375 -15.40625 C 16.75 -15.40625 16.6875 -15.421875 16.65625 -15.453125 C 16.613281 -15.453125 16.578125 -15.46875 16.546875 -15.5 C 15.910156 -15.863281 15.148438 -16.132812 14.265625 -16.3125 C 13.390625 -16.5 12.648438 -16.59375 12.046875 -16.59375 C 10.347656 -16.59375 8.875 -16.007812 7.625 -14.84375 C 6.375 -13.675781 5.75 -12.078125 5.75 -10.046875 C 5.75 -8.710938 6.03125 -7.507812 6.59375 -6.4375 C 7.164062 -5.375 7.925781 -4.539062 8.875 -3.9375 C 9.820312 -3.34375 10.863281 -3.046875 12 -3.046875 C 12.769531 -3.046875 13.5625 -3.113281 14.375 -3.25 C 15.1875 -3.382812 15.894531 -3.601562 16.5 -3.90625 C 16.601562 -4 16.703125 -4.046875 16.796875 -4.046875 C 16.992188 -4.046875 17.160156 -3.976562 17.296875 -3.84375 L 18.40625 -2.09375 C 18.5 -1.96875 18.546875 -1.851562 18.546875 -1.75 C 18.546875 -1.613281 18.476562 -1.5 18.34375 -1.40625 C 17.445312 -0.832031 16.441406 -0.410156 15.328125 -0.140625 C 14.210938 0.117188 13.117188 0.25 12.046875 0.25 Z M 12.046875 0.25 "/></g></g></g><g fill="#ffffff" fill-opacity="1"><g transform="translate(141.588396, 278.536506)"><g><path d="M 3.953125 0 C 3.648438 0 3.5 -0.148438 3.5 -0.453125 L 3.5 -27.953125 C 3.5 -28.253906 3.648438 -28.40625 3.953125 -28.40625 L 7.046875 -28.40625 C 7.347656 -28.40625 7.5 -28.253906 7.5 -27.953125 L 7.5 -11.65625 L 15.34375 -19.5 C 15.476562 -19.664062 15.628906 -19.789062 15.796875 -19.875 C 15.960938 -19.957031 16.113281 -20 16.25 -20 L 20.65625 -20 C 20.988281 -20 21.15625 -19.832031 21.15625 -19.5 L 11.65625 -10.046875 L 20.90625 -0.5 C 20.90625 -0.332031 20.78125 -0.207031 20.53125 -0.125 C 20.28125 -0.0390625 20.070312 0 19.90625 0 L 16.25 0 C 16.113281 0 15.960938 -0.0390625 15.796875 -0.125 C 15.628906 -0.207031 15.476562 -0.332031 15.34375 -0.5 L 7.5 -8.546875 L 7.5 -0.453125 C 7.5 -0.148438 7.347656 0 7.046875 0 Z M 3.953125 0 "/></g></g></g><g fill="#ffffff" fill-opacity="1"><g transform="translate(163.734966, 278.536506)"><g><path d="M 3.953125 0 C 3.648438 0 3.5 -0.148438 3.5 -0.453125 L 3.5 -28.34375 C 3.601562 -28.476562 3.703125 -28.546875 3.796875 -28.546875 C 3.898438 -28.546875 4.019531 -28.476562 4.15625 -28.34375 L 16.59375 -14.25 C 16.800781 -14.050781 16.953125 -13.953125 17.046875 -13.953125 C 17.148438 -13.953125 17.300781 -14.050781 17.5 -14.25 L 29.953125 -28.34375 C 30.085938 -28.476562 30.203125 -28.546875 30.296875 -28.546875 C 30.398438 -28.546875 30.5 -28.476562 30.59375 -28.34375 L 30.59375 -0.453125 C 30.59375 -0.148438 30.445312 0 30.15625 0 L 27.046875 0 C 26.742188 0 26.59375 -0.148438 26.59375 -0.453125 L 26.59375 -18.59375 L 17.546875 -8.25 C 17.347656 -8.019531 17.179688 -7.90625 17.046875 -7.90625 C 16.910156 -7.90625 16.742188 -8.019531 16.546875 -8.25 L 7.5 -18.59375 L 7.5 -0.453125 C 7.5 -0.148438 7.347656 0 7.046875 0 Z M 3.953125 0 "/></g></g></g><g fill="#ffffff" fill-opacity="1"><g transform="translate(197.829683, 278.536506)"><g><path d="M 3.296875 8.546875 C 2.960938 8.546875 2.796875 8.378906 2.796875 8.046875 L 8.75 -4.34375 L 1.5 -19.5 C 1.5 -19.832031 1.664062 -20 2 -20 L 5.203125 -20 C 5.460938 -20 5.710938 -19.832031 5.953125 -19.5 L 11 -8.703125 C 11.664062 -10.265625 12.460938 -12.046875 13.390625 -14.046875 C 14.328125 -16.046875 15.195312 -17.863281 16 -19.5 C 16.226562 -19.832031 16.476562 -20 16.75 -20 L 19.953125 -20 C 20.285156 -20 20.453125 -19.832031 20.453125 -19.5 L 7.296875 8.046875 C 7.066406 8.378906 6.816406 8.546875 6.546875 8.546875 Z M 3.296875 8.546875 "/></g></g></g><g fill="#ffffff" fill-opacity="1"><g transform="translate(219.026406, 278.536506)"><g><path d="M 10 0 C 9.695312 0 9.546875 -0.148438 9.546875 -0.453125 L 9.546875 -24.90625 L 1.953125 -24.90625 C 1.648438 -24.90625 1.5 -25.050781 1.5 -25.34375 L 1.5 -27.953125 C 1.5 -28.253906 1.648438 -28.40625 1.953125 -28.40625 L 21.09375 -28.40625 C 21.394531 -28.40625 21.546875 -28.253906 21.546875 -27.953125 L 21.546875 -25.34375 C 21.546875 -25.050781 21.394531 -24.90625 21.09375 -24.90625 L 13.546875 -24.90625 L 13.546875 -0.453125 C 13.546875 -0.148438 13.394531 0 13.09375 0 Z M 10 0 "/></g></g></g><g fill="#ffffff" fill-opacity="1"><g transform="translate(242.072837, 278.536506)"><g><path d="M 9.75 0.25 C 9.21875 0.25 8.523438 0.179688 7.671875 0.046875 C 6.828125 -0.0859375 5.96875 -0.378906 5.09375 -0.828125 C 4.226562 -1.273438 3.492188 -1.945312 2.890625 -2.84375 C 2.296875 -3.75 2 -4.953125 2 -6.453125 C 2 -7.847656 2.335938 -9.003906 3.015625 -9.921875 C 3.703125 -10.835938 4.613281 -11.507812 5.75 -11.9375 C 6.882812 -12.375 8.101562 -12.59375 9.40625 -12.59375 C 10.269531 -12.59375 11.203125 -12.425781 12.203125 -12.09375 C 13.203125 -11.757812 14.101562 -11.160156 14.90625 -10.296875 C 14.90625 -12.703125 14.367188 -14.351562 13.296875 -15.25 C 12.234375 -16.144531 10.703125 -16.59375 8.703125 -16.59375 C 8.003906 -16.59375 6.820312 -16.410156 5.15625 -16.046875 C 5.050781 -16.015625 4.972656 -15.988281 4.921875 -15.96875 C 4.867188 -15.957031 4.8125 -15.953125 4.75 -15.953125 C 4.582031 -15.953125 4.445312 -16.066406 4.34375 -16.296875 L 3.59375 -18.09375 C 3.5 -18.300781 3.453125 -18.488281 3.453125 -18.65625 C 3.453125 -18.820312 3.519531 -18.953125 3.65625 -19.046875 C 4.914062 -19.617188 5.992188 -19.960938 6.890625 -20.078125 C 7.796875 -20.191406 8.632812 -20.25 9.40625 -20.25 C 12.46875 -20.25 14.816406 -19.460938 16.453125 -17.890625 C 18.085938 -16.328125 18.90625 -14.128906 18.90625 -11.296875 L 18.90625 -0.453125 C 18.90625 -0.148438 18.753906 0 18.453125 0 L 16.40625 0 C 16.132812 0 15.914062 -0.148438 15.75 -0.453125 L 15.59375 -2.40625 C 15.195312 -1.738281 14.691406 -1.21875 14.078125 -0.84375 C 13.460938 -0.476562 12.835938 -0.21875 12.203125 -0.0625 C 11.566406 0.0820312 11.023438 0.171875 10.578125 0.203125 C 10.128906 0.234375 9.851562 0.25 9.75 0.25 Z M 10.34375 -3.046875 C 10.644531 -3.046875 11.28125 -3.160156 12.25 -3.390625 C 13.21875 -3.628906 14.101562 -4.148438 14.90625 -4.953125 L 14.90625 -7 C 14.4375 -7.726562 13.675781 -8.285156 12.625 -8.671875 C 11.570312 -9.054688 10.628906 -9.25 9.796875 -9.25 C 8.296875 -9.25 7.285156 -8.972656 6.765625 -8.421875 C 6.253906 -7.867188 6 -7.128906 6 -6.203125 C 6 -4.929688 6.335938 -4.085938 7.015625 -3.671875 C 7.703125 -3.253906 8.8125 -3.046875 10.34375 -3.046875 Z M 10.34375 -3.046875 "/></g></g></g><g fill="#ffffff" fill-opacity="1"><g transform="translate(264.219408, 278.536506)"><g><path d="M 9.40625 0.25 C 8.238281 0.25 7.09375 0.148438 5.96875 -0.046875 C 4.851562 -0.242188 3.710938 -0.644531 2.546875 -1.25 C 2.347656 -1.3125 2.25 -1.425781 2.25 -1.59375 C 2.25 -1.695312 2.265625 -1.765625 2.296875 -1.796875 L 2.84375 -4 C 2.976562 -4.164062 3.164062 -4.25 3.40625 -4.25 C 4.101562 -3.976562 4.96875 -3.707031 6 -3.4375 C 7.03125 -3.175781 8.144531 -3.046875 9.34375 -3.046875 C 9.75 -3.046875 10.265625 -3.085938 10.890625 -3.171875 C 11.523438 -3.253906 12.09375 -3.445312 12.59375 -3.75 C 13.09375 -4.050781 13.34375 -4.519531 13.34375 -5.15625 C 13.34375 -5.851562 13.078125 -6.410156 12.546875 -6.828125 C 12.015625 -7.242188 11.320312 -7.59375 10.46875 -7.875 C 9.625 -8.15625 8.734375 -8.445312 7.796875 -8.75 C 6.867188 -9.050781 5.976562 -9.425781 5.125 -9.875 C 4.269531 -10.320312 3.578125 -10.9375 3.046875 -11.71875 C 2.515625 -12.507812 2.25 -13.519531 2.25 -14.75 C 2.25 -16.613281 3 -17.992188 4.5 -18.890625 C 6 -19.796875 7.832031 -20.25 10 -20.25 C 11 -20.25 11.972656 -20.15625 12.921875 -19.96875 C 13.867188 -19.789062 14.675781 -19.601562 15.34375 -19.40625 C 15.550781 -19.269531 15.65625 -19.066406 15.65625 -18.796875 L 14.953125 -16.40625 C 14.878906 -16.164062 14.710938 -16.046875 14.453125 -16.046875 C 12.921875 -16.410156 11.351562 -16.59375 9.75 -16.59375 C 8.71875 -16.59375 7.953125 -16.492188 7.453125 -16.296875 C 6.953125 -16.097656 6.632812 -15.835938 6.5 -15.515625 C 6.363281 -15.203125 6.296875 -14.863281 6.296875 -14.5 C 6.296875 -13.863281 6.671875 -13.34375 7.421875 -12.9375 C 8.171875 -12.539062 9.101562 -12.160156 10.21875 -11.796875 C 11.34375 -11.429688 12.453125 -11.003906 13.546875 -10.515625 C 14.648438 -10.035156 15.578125 -9.410156 16.328125 -8.640625 C 17.078125 -7.878906 17.453125 -6.898438 17.453125 -5.703125 C 17.453125 -4.203125 17.039062 -3.015625 16.21875 -2.140625 C 15.40625 -1.273438 14.378906 -0.660156 13.140625 -0.296875 C 11.910156 0.0664062 10.664062 0.25 9.40625 0.25 Z M 9.40625 0.25 "/></g></g></g><g fill="#ffffff" fill-opacity="1"><g transform="translate(283.716374, 278.536506)"><g><path d="M 3.953125 0 C 3.648438 0 3.5 -0.148438 3.5 -0.453125 L 3.5 -27.953125 C 3.5 -28.253906 3.648438 -28.40625 3.953125 -28.40625 L 7.046875 -28.40625 C 7.347656 -28.40625 7.5 -28.253906 7.5 -27.953125 L 7.5 -11.65625 L 15.34375 -19.5 C 15.476562 -19.664062 15.628906 -19.789062 15.796875 -19.875 C 15.960938 -19.957031 16.113281 -20 16.25 -20 L 20.65625 -20 C 20.988281 -20 21.15625 -19.832031 21.15625 -19.5 L 11.65625 -10.046875 L 20.90625 -0.5 C 20.90625 -0.332031 20.78125 -0.207031 20.53125 -0.125 C 20.28125 -0.0390625 20.070312 0 19.90625 0 L 16.25 0 C 16.113281 0 15.960938 -0.0390625 15.796875 -0.125 C 15.628906 -0.207031 15.476562 -0.332031 15.34375 -0.5 L 7.5 -8.546875 L 7.5 -0.453125 C 7.5 -0.148438 7.347656 0 7.046875 0 Z M 3.953125 0 "/></g></g></g><g fill="#ffffff" fill-opacity="1"><g transform="translate(56.403362, 315.786426)"><g><path d="M 3.765625 -14.4375 L 3.765625 -8.234375 L 10.625 -8.234375 L 10.625 -14.4375 L 12.625 -14.4375 L 12.625 0 L 10.625 0 L 10.625 -6.515625 L 3.765625 -6.515625 L 3.765625 0 L 1.765625 0 L 1.765625 -14.4375 Z M 3.765625 -14.4375 "/></g></g></g><g fill="#ffffff" fill-opacity="1"><g transform="translate(70.837668, 315.786426)"><g><path d="M 2.359375 -10.046875 L 5.5 -2.125 L 8.703125 -10.046875 L 10.734375 -10.046875 L 6.234375 0.140625 L 4.84375 3.796875 L 2.90625 3.796875 L 4.421875 -0.046875 L 0.234375 -10.046875 Z M 2.359375 -10.046875 "/></g></g></g><g fill="#ffffff" fill-opacity="1"><g transform="translate(81.953279, 315.786426)"><g><path d="M 6.65625 0.375 C 5.894531 0.375 5.257812 0.238281 4.75 -0.03125 C 4.238281 -0.3125 3.84375 -0.675781 3.5625 -1.125 L 3.5625 3.859375 L 1.703125 3.859375 L 1.703125 -8.5 C 1.703125 -8.65625 1.679688 -9.171875 1.640625 -10.046875 L 3.546875 -10.046875 C 3.566406 -9.359375 3.578125 -8.800781 3.578125 -8.375 C 3.941406 -8.976562 4.425781 -9.429688 5.03125 -9.734375 C 5.632812 -10.046875 6.296875 -10.203125 7.015625 -10.203125 C 8.285156 -10.203125 9.300781 -9.738281 10.0625 -8.8125 C 10.832031 -7.882812 11.21875 -6.613281 11.21875 -5 C 11.21875 -3.375 10.796875 -2.070312 9.953125 -1.09375 C 9.117188 -0.113281 8.019531 0.375 6.65625 0.375 Z M 9.265625 -5.125 C 9.265625 -7.570312 8.34375 -8.796875 6.5 -8.796875 C 5.539062 -8.796875 4.800781 -8.46875 4.28125 -7.8125 C 3.757812 -7.164062 3.5 -6.132812 3.5 -4.71875 C 3.5 -3.46875 3.738281 -2.535156 4.21875 -1.921875 C 4.695312 -1.304688 5.394531 -1 6.3125 -1 C 7.3125 -1 8.050781 -1.367188 8.53125 -2.109375 C 9.019531 -2.859375 9.265625 -3.863281 9.265625 -5.125 Z M 9.265625 -5.125 "/></g></g></g><g fill="#ffffff" fill-opacity="1"><g transform="translate(94.168462, 315.786426)"><g><path d="M 10.125 -4.6875 L 2.90625 -4.6875 L 2.90625 -4.515625 C 2.90625 -3.441406 3.15625 -2.597656 3.65625 -1.984375 C 4.15625 -1.367188 4.863281 -1.0625 5.78125 -1.0625 C 6.457031 -1.0625 7.003906 -1.238281 7.421875 -1.59375 C 7.835938 -1.945312 8.078125 -2.460938 8.140625 -3.140625 L 10.015625 -3.140625 C 9.941406 -2.097656 9.515625 -1.265625 8.734375 -0.640625 C 7.960938 -0.015625 6.953125 0.296875 5.703125 0.296875 C 4.148438 0.296875 2.984375 -0.144531 2.203125 -1.03125 C 1.429688 -1.925781 1.046875 -3.222656 1.046875 -4.921875 C 1.046875 -6.671875 1.457031 -8.003906 2.28125 -8.921875 C 3.101562 -9.835938 4.269531 -10.296875 5.78125 -10.296875 C 8.632812 -10.296875 10.082031 -8.691406 10.125 -5.484375 Z M 8.203125 -6 L 8.203125 -6.140625 C 8.203125 -7.035156 8 -7.726562 7.59375 -8.21875 C 7.1875 -8.707031 6.5625 -8.953125 5.71875 -8.953125 C 4.914062 -8.953125 4.265625 -8.6875 3.765625 -8.15625 C 3.265625 -7.632812 3.003906 -6.914062 2.984375 -6 Z M 8.203125 -6 "/></g></g></g><g fill="#ffffff" fill-opacity="1"><g transform="translate(105.284073, 315.786426)"><g><path d="M 7.40625 -10.125 L 7.40625 -8.28125 C 7.21875 -8.34375 6.9375 -8.375 6.5625 -8.375 C 5.550781 -8.375 4.832031 -8.125 4.40625 -7.625 C 3.976562 -7.125 3.765625 -6.390625 3.765625 -5.421875 L 3.765625 0 L 1.859375 0 L 1.859375 -8.140625 C 1.816406 -9.035156 1.785156 -9.671875 1.765625 -10.046875 L 3.65625 -10.046875 C 3.6875 -9.242188 3.703125 -8.59375 3.703125 -8.09375 C 3.867188 -8.78125 4.234375 -9.289062 4.796875 -9.625 C 5.367188 -9.96875 6.054688 -10.140625 6.859375 -10.140625 C 7.078125 -10.140625 7.257812 -10.132812 7.40625 -10.125 Z M 7.40625 -10.125 "/></g></g></g><g fill="#ffffff" fill-opacity="1"><g transform="translate(113.061008, 315.786426)"><g><path d="M 3.6875 -14.421875 L 3.6875 0 L 1.796875 0 L 1.796875 -14.421875 Z M 3.6875 -14.421875 "/></g></g></g><g fill="#ffffff" fill-opacity="1"><g transform="translate(118.61882, 315.786426)"><g><path d="M 5.953125 0.34375 C 4.441406 0.34375 3.238281 -0.128906 2.34375 -1.078125 C 1.457031 -2.035156 1.015625 -3.3125 1.015625 -4.90625 C 1.015625 -6.582031 1.46875 -7.898438 2.375 -8.859375 C 3.28125 -9.816406 4.53125 -10.296875 6.125 -10.296875 C 7.664062 -10.296875 8.867188 -9.828125 9.734375 -8.890625 C 10.609375 -7.960938 11.046875 -6.671875 11.046875 -5.015625 C 11.046875 -3.378906 10.578125 -2.078125 9.640625 -1.109375 C 8.703125 -0.140625 7.472656 0.34375 5.953125 0.34375 Z M 9.046875 -5.09375 C 9.046875 -6.300781 8.785156 -7.238281 8.265625 -7.90625 C 7.753906 -8.582031 7.039062 -8.921875 6.125 -8.921875 C 5.195312 -8.921875 4.441406 -8.578125 3.859375 -7.890625 C 3.273438 -7.203125 2.984375 -6.257812 2.984375 -5.0625 C 2.984375 -3.863281 3.242188 -2.894531 3.765625 -2.15625 C 4.296875 -1.425781 5.035156 -1.0625 5.984375 -1.0625 C 6.898438 -1.0625 7.640625 -1.410156 8.203125 -2.109375 C 8.765625 -2.804688 9.046875 -3.800781 9.046875 -5.09375 Z M 9.046875 -5.09375 "/></g></g></g><g fill="#ffffff" fill-opacity="1"><g transform="translate(130.834002, 315.786426)"><g><path d="M 7.484375 -6.8125 C 7.441406 -7.507812 7.242188 -8.035156 6.890625 -8.390625 C 6.546875 -8.742188 6.078125 -8.921875 5.484375 -8.921875 C 4.671875 -8.921875 4.03125 -8.613281 3.5625 -8 C 3.101562 -7.394531 2.875 -6.4375 2.875 -5.125 C 2.875 -2.476562 3.707031 -1.15625 5.375 -1.15625 C 6.019531 -1.15625 6.535156 -1.34375 6.921875 -1.71875 C 7.304688 -2.101562 7.519531 -2.644531 7.5625 -3.34375 L 9.453125 -3.34375 C 9.378906 -2.289062 8.972656 -1.425781 8.234375 -0.75 C 7.503906 -0.0703125 6.566406 0.265625 5.421875 0.265625 C 4.015625 0.265625 2.910156 -0.160156 2.109375 -1.015625 C 1.304688 -1.867188 0.90625 -3.15625 0.90625 -4.875 C 0.90625 -6.582031 1.328125 -7.910156 2.171875 -8.859375 C 3.015625 -9.816406 4.101562 -10.296875 5.4375 -10.296875 C 6.601562 -10.296875 7.539062 -9.984375 8.25 -9.359375 C 8.957031 -8.742188 9.332031 -7.894531 9.375 -6.8125 Z M 7.484375 -6.8125 "/></g></g></g><g fill="#ffffff" fill-opacity="1"><g transform="translate(140.830061, 315.786426)"><g><path d="M 9.421875 -2.5 C 9.429688 -1.882812 9.445312 -1.421875 9.46875 -1.109375 C 9.5 -0.796875 9.535156 -0.425781 9.578125 0 L 7.875 0 C 7.8125 -0.226562 7.765625 -0.453125 7.734375 -0.671875 C 7.710938 -0.898438 7.703125 -1.175781 7.703125 -1.5 C 7.390625 -0.925781 6.988281 -0.476562 6.5 -0.15625 C 6.007812 0.15625 5.367188 0.3125 4.578125 0.3125 C 3.492188 0.3125 2.632812 0.0390625 2 -0.5 C 1.375 -1.039062 1.0625 -1.753906 1.0625 -2.640625 C 1.0625 -3.691406 1.472656 -4.550781 2.296875 -5.21875 C 3.128906 -5.894531 4.410156 -6.234375 6.140625 -6.234375 C 6.835938 -6.234375 7.34375 -6.21875 7.65625 -6.1875 L 7.65625 -7.015625 C 7.65625 -7.828125 7.453125 -8.367188 7.046875 -8.640625 C 6.648438 -8.921875 6.128906 -9.0625 5.484375 -9.0625 C 4.890625 -9.0625 4.421875 -8.914062 4.078125 -8.625 C 3.742188 -8.34375 3.566406 -7.921875 3.546875 -7.359375 L 1.65625 -7.359375 C 1.726562 -8.390625 2.101562 -9.144531 2.78125 -9.625 C 3.457031 -10.101562 4.394531 -10.34375 5.59375 -10.34375 C 6.707031 -10.34375 7.632812 -10.109375 8.375 -9.640625 C 9.125 -9.179688 9.5 -8.4375 9.5 -7.40625 Z M 7.625 -3.84375 L 7.65625 -4.875 C 7.550781 -4.894531 7.40625 -4.910156 7.21875 -4.921875 C 7.039062 -4.929688 6.828125 -4.9375 6.578125 -4.9375 C 4.160156 -4.9375 2.953125 -4.265625 2.953125 -2.921875 C 2.953125 -2.410156 3.128906 -1.988281 3.484375 -1.65625 C 3.835938 -1.320312 4.359375 -1.15625 5.046875 -1.15625 C 5.835938 -1.15625 6.457031 -1.394531 6.90625 -1.875 C 7.351562 -2.351562 7.59375 -3.007812 7.625 -3.84375 Z M 7.625 -3.84375 "/></g></g></g><g fill="#ffffff" fill-opacity="1"><g transform="translate(151.945672, 315.786426)"><g><path d="M 3.6875 -14.421875 L 3.6875 0 L 1.796875 0 L 1.796875 -14.421875 Z M 3.6875 -14.421875 "/></g></g></g><g fill="#ffffff" fill-opacity="1"><g transform="translate(157.503483, 315.786426)"><g/></g></g><g fill="#ffffff" fill-opacity="1"><g transform="translate(163.061295, 315.786426)"><g><path d="M 3.859375 -10.078125 L 6.09375 -10.078125 L 6.09375 -8.703125 L 3.859375 -8.703125 L 3.859375 -2.5625 C 3.859375 -2.101562 3.972656 -1.785156 4.203125 -1.609375 C 4.441406 -1.429688 4.773438 -1.34375 5.203125 -1.34375 C 5.535156 -1.34375 5.832031 -1.375 6.09375 -1.4375 L 6.09375 0.015625 C 5.9375 0.046875 5.722656 0.0703125 5.453125 0.09375 C 5.179688 0.125 4.882812 0.140625 4.5625 0.140625 C 3.582031 0.140625 2.910156 -0.03125 2.546875 -0.375 C 2.179688 -0.726562 2 -1.25 2 -1.9375 L 2 -8.703125 L 0.21875 -8.703125 L 0.21875 -10.078125 L 2 -10.078125 L 2 -12.1875 L 3.859375 -12.78125 Z M 3.859375 -10.078125 "/></g></g></g><g fill="#ffffff" fill-opacity="1"><g transform="translate(169.718666, 315.786426)"><g><path d="M 9.421875 -2.5 C 9.429688 -1.882812 9.445312 -1.421875 9.46875 -1.109375 C 9.5 -0.796875 9.535156 -0.425781 9.578125 0 L 7.875 0 C 7.8125 -0.226562 7.765625 -0.453125 7.734375 -0.671875 C 7.710938 -0.898438 7.703125 -1.175781 7.703125 -1.5 C 7.390625 -0.925781 6.988281 -0.476562 6.5 -0.15625 C 6.007812 0.15625 5.367188 0.3125 4.578125 0.3125 C 3.492188 0.3125 2.632812 0.0390625 2 -0.5 C 1.375 -1.039062 1.0625 -1.753906 1.0625 -2.640625 C 1.0625 -3.691406 1.472656 -4.550781 2.296875 -5.21875 C 3.128906 -5.894531 4.410156 -6.234375 6.140625 -6.234375 C 6.835938 -6.234375 7.34375 -6.21875 7.65625 -6.1875 L 7.65625 -7.015625 C 7.65625 -7.828125 7.453125 -8.367188 7.046875 -8.640625 C 6.648438 -8.921875 6.128906 -9.0625 5.484375 -9.0625 C 4.890625 -9.0625 4.421875 -8.914062 4.078125 -8.625 C 3.742188 -8.34375 3.566406 -7.921875 3.546875 -7.359375 L 1.65625 -7.359375 C 1.726562 -8.390625 2.101562 -9.144531 2.78125 -9.625 C 3.457031 -10.101562 4.394531 -10.34375 5.59375 -10.34375 C 6.707031 -10.34375 7.632812 -10.109375 8.375 -9.640625 C 9.125 -9.179688 9.5 -8.4375 9.5 -7.40625 Z M 7.625 -3.84375 L 7.65625 -4.875 C 7.550781 -4.894531 7.40625 -4.910156 7.21875 -4.921875 C 7.039062 -4.929688 6.828125 -4.9375 6.578125 -4.9375 C 4.160156 -4.9375 2.953125 -4.265625 2.953125 -2.921875 C 2.953125 -2.410156 3.128906 -1.988281 3.484375 -1.65625 C 3.835938 -1.320312 4.359375 -1.15625 5.046875 -1.15625 C 5.835938 -1.15625 6.457031 -1.394531 6.90625 -1.875 C 7.351562 -2.351562 7.59375 -3.007812 7.625 -3.84375 Z M 7.625 -3.84375 "/></g></g></g><g fill="#ffffff" fill-opacity="1"><g transform="translate(180.834277, 315.786426)"><g><path d="M 8.859375 -7.265625 L 6.9375 -7.265625 L 6.9375 -7.375 C 6.9375 -8.394531 6.289062 -8.90625 5 -8.90625 C 4.363281 -8.90625 3.863281 -8.78125 3.5 -8.53125 C 3.132812 -8.28125 2.953125 -7.921875 2.953125 -7.453125 C 2.953125 -6.847656 3.363281 -6.441406 4.1875 -6.234375 L 6.5 -5.65625 C 7.375 -5.445312 8.03125 -5.125 8.46875 -4.6875 C 8.90625 -4.257812 9.125 -3.675781 9.125 -2.9375 C 9.125 -1.945312 8.75 -1.160156 8 -0.578125 C 7.25 -0.00390625 6.195312 0.28125 4.84375 0.28125 C 3.5625 0.28125 2.578125 0 1.890625 -0.5625 C 1.203125 -1.132812 0.859375 -1.941406 0.859375 -2.984375 L 2.84375 -2.984375 C 2.84375 -2.410156 3.03125 -1.960938 3.40625 -1.640625 C 3.789062 -1.316406 4.34375 -1.15625 5.0625 -1.15625 C 5.738281 -1.15625 6.25 -1.300781 6.59375 -1.59375 C 6.945312 -1.894531 7.125 -2.273438 7.125 -2.734375 C 7.125 -3.335938 6.804688 -3.726562 6.171875 -3.90625 C 5.546875 -4.09375 4.816406 -4.273438 3.984375 -4.453125 C 3.128906 -4.640625 2.425781 -4.941406 1.875 -5.359375 C 1.332031 -5.773438 1.0625 -6.398438 1.0625 -7.234375 C 1.0625 -8.140625 1.421875 -8.875 2.140625 -9.4375 C 2.867188 -10 3.816406 -10.28125 4.984375 -10.28125 C 6.078125 -10.28125 6.992188 -10.054688 7.734375 -9.609375 C 8.484375 -9.160156 8.859375 -8.472656 8.859375 -7.546875 Z M 8.859375 -7.265625 "/></g></g></g><g fill="#ffffff" fill-opacity="1"><g transform="translate(190.830336, 315.786426)"><g><path d="M 3.484375 -14.546875 L 3.484375 -5.9375 L 7.234375 -10.046875 L 9.703125 -10.046875 L 5.453125 -5.78125 L 9.953125 0 L 7.5 0 L 3.484375 -5.421875 L 3.484375 0 L 1.625 0 L 1.625 -14.546875 Z M 3.484375 -14.546875 "/></g></g></g><g fill="#ffffff" fill-opacity="1"><g transform="translate(200.826395, 315.786426)"><g/></g></g><g fill="#ffffff" fill-opacity="1"><g transform="translate(206.384206, 315.786426)"><g><path d="M 8.859375 -7.265625 L 6.9375 -7.265625 L 6.9375 -7.375 C 6.9375 -8.394531 6.289062 -8.90625 5 -8.90625 C 4.363281 -8.90625 3.863281 -8.78125 3.5 -8.53125 C 3.132812 -8.28125 2.953125 -7.921875 2.953125 -7.453125 C 2.953125 -6.847656 3.363281 -6.441406 4.1875 -6.234375 L 6.5 -5.65625 C 7.375 -5.445312 8.03125 -5.125 8.46875 -4.6875 C 8.90625 -4.257812 9.125 -3.675781 9.125 -2.9375 C 9.125 -1.945312 8.75 -1.160156 8 -0.578125 C 7.25 -0.00390625 6.195312 0.28125 4.84375 0.28125 C 3.5625 0.28125 2.578125 0 1.890625 -0.5625 C 1.203125 -1.132812 0.859375 -1.941406 0.859375 -2.984375 L 2.84375 -2.984375 C 2.84375 -2.410156 3.03125 -1.960938 3.40625 -1.640625 C 3.789062 -1.316406 4.34375 -1.15625 5.0625 -1.15625 C 5.738281 -1.15625 6.25 -1.300781 6.59375 -1.59375 C 6.945312 -1.894531 7.125 -2.273438 7.125 -2.734375 C 7.125 -3.335938 6.804688 -3.726562 6.171875 -3.90625 C 5.546875 -4.09375 4.816406 -4.273438 3.984375 -4.453125 C 3.128906 -4.640625 2.425781 -4.941406 1.875 -5.359375 C 1.332031 -5.773438 1.0625 -6.398438 1.0625 -7.234375 C 1.0625 -8.140625 1.421875 -8.875 2.140625 -9.4375 C 2.867188 -10 3.816406 -10.28125 4.984375 -10.28125 C 6.078125 -10.28125 6.992188 -10.054688 7.734375 -9.609375 C 8.484375 -9.160156 8.859375 -8.472656 8.859375 -7.546875 Z M 8.859375 -7.265625 "/></g></g></g><g fill="#ffffff" fill-opacity="1"><g transform="translate(216.380265, 315.786426)"><g><path d="M 3.65625 -14.421875 L 3.65625 -8.5625 C 3.976562 -9.09375 4.421875 -9.5 4.984375 -9.78125 C 5.554688 -10.070312 6.203125 -10.21875 6.921875 -10.21875 C 7.910156 -10.21875 8.738281 -9.960938 9.40625 -9.453125 C 10.082031 -8.941406 10.421875 -8 10.421875 -6.625 L 10.421875 0 L 8.5 0 L 8.5 -6.078125 C 8.5 -7.035156 8.316406 -7.722656 7.953125 -8.140625 C 7.597656 -8.566406 7.0625 -8.78125 6.34375 -8.78125 C 5.65625 -8.78125 5.035156 -8.550781 4.484375 -8.09375 C 3.929688 -7.644531 3.65625 -6.820312 3.65625 -5.625 L 3.65625 0 L 1.765625 0 L 1.765625 -14.421875 Z M 3.65625 -14.421875 "/></g></g></g><g fill="#ffffff" fill-opacity="1"><g transform="translate(228.595447, 315.786426)"><g><path d="M 9.421875 -2.5 C 9.429688 -1.882812 9.445312 -1.421875 9.46875 -1.109375 C 9.5 -0.796875 9.535156 -0.425781 9.578125 0 L 7.875 0 C 7.8125 -0.226562 7.765625 -0.453125 7.734375 -0.671875 C 7.710938 -0.898438 7.703125 -1.175781 7.703125 -1.5 C 7.390625 -0.925781 6.988281 -0.476562 6.5 -0.15625 C 6.007812 0.15625 5.367188 0.3125 4.578125 0.3125 C 3.492188 0.3125 2.632812 0.0390625 2 -0.5 C 1.375 -1.039062 1.0625 -1.753906 1.0625 -2.640625 C 1.0625 -3.691406 1.472656 -4.550781 2.296875 -5.21875 C 3.128906 -5.894531 4.410156 -6.234375 6.140625 -6.234375 C 6.835938 -6.234375 7.34375 -6.21875 7.65625 -6.1875 L 7.65625 -7.015625 C 7.65625 -7.828125 7.453125 -8.367188 7.046875 -8.640625 C 6.648438 -8.921875 6.128906 -9.0625 5.484375 -9.0625 C 4.890625 -9.0625 4.421875 -8.914062 4.078125 -8.625 C 3.742188 -8.34375 3.566406 -7.921875 3.546875 -7.359375 L 1.65625 -7.359375 C 1.726562 -8.390625 2.101562 -9.144531 2.78125 -9.625 C 3.457031 -10.101562 4.394531 -10.34375 5.59375 -10.34375 C 6.707031 -10.34375 7.632812 -10.109375 8.375 -9.640625 C 9.125 -9.179688 9.5 -8.4375 9.5 -7.40625 Z M 7.625 -3.84375 L 7.65625 -4.875 C 7.550781 -4.894531 7.40625 -4.910156 7.21875 -4.921875 C 7.039062 -4.929688 6.828125 -4.9375 6.578125 -4.9375 C 4.160156 -4.9375 2.953125 -4.265625 2.953125 -2.921875 C 2.953125 -2.410156 3.128906 -1.988281 3.484375 -1.65625 C 3.835938 -1.320312 4.359375 -1.15625 5.046875 -1.15625 C 5.835938 -1.15625 6.457031 -1.394531 6.90625 -1.875 C 7.351562 -2.351562 7.59375 -3.007812 7.625 -3.84375 Z M 7.625 -3.84375 "/></g></g></g><g fill="#ffffff" fill-opacity="1"><g transform="translate(239.711058, 315.786426)"><g><path d="M 7.40625 -10.125 L 7.40625 -8.28125 C 7.21875 -8.34375 6.9375 -8.375 6.5625 -8.375 C 5.550781 -8.375 4.832031 -8.125 4.40625 -7.625 C 3.976562 -7.125 3.765625 -6.390625 3.765625 -5.421875 L 3.765625 0 L 1.859375 0 L 1.859375 -8.140625 C 1.816406 -9.035156 1.785156 -9.671875 1.765625 -10.046875 L 3.65625 -10.046875 C 3.6875 -9.242188 3.703125 -8.59375 3.703125 -8.09375 C 3.867188 -8.78125 4.234375 -9.289062 4.796875 -9.625 C 5.367188 -9.96875 6.054688 -10.140625 6.859375 -10.140625 C 7.078125 -10.140625 7.257812 -10.132812 7.40625 -10.125 Z M 7.40625 -10.125 "/></g></g></g><g fill="#ffffff" fill-opacity="1"><g transform="translate(247.487993, 315.786426)"><g><path d="M 3.84375 -14.40625 L 3.84375 -12.34375 L 1.578125 -12.34375 L 1.578125 -14.40625 Z M 3.65625 -10.046875 L 3.65625 0 L 1.78125 0 L 1.78125 -10.046875 Z M 3.65625 -10.046875 "/></g></g></g><g fill="#ffffff" fill-opacity="1"><g transform="translate(253.045805, 315.786426)"><g><path d="M 10.5625 0 L 8.640625 0 L 8.640625 -6.578125 C 8.640625 -7.296875 8.414062 -7.84375 7.96875 -8.21875 C 7.519531 -8.59375 6.96875 -8.78125 6.3125 -8.78125 C 5.519531 -8.78125 4.882812 -8.492188 4.40625 -7.921875 C 3.9375 -7.359375 3.703125 -6.664062 3.703125 -5.84375 L 3.703125 0 L 1.8125 0 L 1.8125 -9.3125 C 1.8125 -9.5 1.804688 -9.742188 1.796875 -10.046875 L 3.6875 -10.046875 C 3.6875 -9.628906 3.691406 -9.285156 3.703125 -9.015625 L 3.703125 -8.421875 C 4.316406 -9.628906 5.390625 -10.234375 6.921875 -10.234375 C 8.003906 -10.234375 8.878906 -9.929688 9.546875 -9.328125 C 10.222656 -8.722656 10.5625 -7.894531 10.5625 -6.84375 Z M 10.5625 0 "/></g></g></g><g fill="#ffffff" fill-opacity="1"><g transform="translate(265.260999, 315.786426)"><g><path d="M 10.5 -10.046875 C 10.488281 -9.347656 10.472656 -8.597656 10.453125 -7.796875 L 10.4375 -2.0625 C 10.4375 -0.632812 10.382812 0.46875 10.28125 1.25 C 10.1875 2.039062 9.78125 2.695312 9.0625 3.21875 C 8.351562 3.75 7.257812 4.015625 5.78125 4.015625 C 4.414062 4.015625 3.382812 3.796875 2.6875 3.359375 C 2 2.929688 1.625 2.070312 1.5625 0.78125 L 3.5625 0.78125 C 3.613281 1.5 3.828125 2.003906 4.203125 2.296875 C 4.578125 2.585938 5.144531 2.734375 5.90625 2.734375 C 6.59375 2.734375 7.113281 2.609375 7.46875 2.359375 C 7.832031 2.117188 8.101562 1.757812 8.28125 1.28125 C 8.46875 0.8125 8.5625 -0.238281 8.5625 -1.875 C 8.332031 -1.351562 7.929688 -0.941406 7.359375 -0.640625 C 6.796875 -0.335938 6.097656 -0.1875 5.265625 -0.1875 C 3.835938 -0.1875 2.773438 -0.640625 2.078125 -1.546875 C 1.390625 -2.453125 1.046875 -3.644531 1.046875 -5.125 C 1.046875 -6.675781 1.453125 -7.90625 2.265625 -8.8125 C 3.085938 -9.726562 4.164062 -10.1875 5.5 -10.1875 C 6.894531 -10.1875 7.945312 -9.675781 8.65625 -8.65625 L 8.6875 -10.046875 Z M 8.625 -5.4375 C 8.625 -6.632812 8.335938 -7.5 7.765625 -8.03125 C 7.191406 -8.570312 6.488281 -8.84375 5.65625 -8.84375 C 4.800781 -8.84375 4.140625 -8.519531 3.671875 -7.875 C 3.210938 -7.238281 2.984375 -6.332031 2.984375 -5.15625 C 2.984375 -4 3.210938 -3.113281 3.671875 -2.5 C 4.128906 -1.882812 4.816406 -1.578125 5.734375 -1.578125 C 6.585938 -1.578125 7.28125 -1.847656 7.8125 -2.390625 C 8.351562 -2.941406 8.625 -3.957031 8.625 -5.4375 Z M 8.625 -5.4375 "/></g></g></g><g fill="#ffffff" fill-opacity="1"><g transform="translate(277.476193, 315.786426)"><g/></g></g><g fill="#ffffff" fill-opacity="1"><g transform="translate(283.033992, 315.786426)"><g><path d="M 9.421875 -2.5 C 9.429688 -1.882812 9.445312 -1.421875 9.46875 -1.109375 C 9.5 -0.796875 9.535156 -0.425781 9.578125 0 L 7.875 0 C 7.8125 -0.226562 7.765625 -0.453125 7.734375 -0.671875 C 7.710938 -0.898438 7.703125 -1.175781 7.703125 -1.5 C 7.390625 -0.925781 6.988281 -0.476562 6.5 -0.15625 C 6.007812 0.15625 5.367188 0.3125 4.578125 0.3125 C 3.492188 0.3125 2.632812 0.0390625 2 -0.5 C 1.375 -1.039062 1.0625 -1.753906 1.0625 -2.640625 C 1.0625 -3.691406 1.472656 -4.550781 2.296875 -5.21875 C 3.128906 -5.894531 4.410156 -6.234375 6.140625 -6.234375 C 6.835938 -6.234375 7.34375 -6.21875 7.65625 -6.1875 L 7.65625 -7.015625 C 7.65625 -7.828125 7.453125 -8.367188 7.046875 -8.640625 C 6.648438 -8.921875 6.128906 -9.0625 5.484375 -9.0625 C 4.890625 -9.0625 4.421875 -8.914062 4.078125 -8.625 C 3.742188 -8.34375 3.566406 -7.921875 3.546875 -7.359375 L 1.65625 -7.359375 C 1.726562 -8.390625 2.101562 -9.144531 2.78125 -9.625 C 3.457031 -10.101562 4.394531 -10.34375 5.59375 -10.34375 C 6.707031 -10.34375 7.632812 -10.109375 8.375 -9.640625 C 9.125 -9.179688 9.5 -8.4375 9.5 -7.40625 Z M 7.625 -3.84375 L 7.65625 -4.875 C 7.550781 -4.894531 7.40625 -4.910156 7.21875 -4.921875 C 7.039062 -4.929688 6.828125 -4.9375 6.578125 -4.9375 C 4.160156 -4.9375 2.953125 -4.265625 2.953125 -2.921875 C 2.953125 -2.410156 3.128906 -1.988281 3.484375 -1.65625 C 3.835938 -1.320312 4.359375 -1.15625 5.046875 -1.15625 C 5.835938 -1.15625 6.457031 -1.394531 6.90625 -1.875 C 7.351562 -2.351562 7.59375 -3.007812 7.625 -3.84375 Z M 7.625 -3.84375 "/></g></g></g><g fill="#ffffff" fill-opacity="1"><g transform="translate(294.149592, 315.786426)"><g><path d="M 6.65625 0.375 C 5.894531 0.375 5.257812 0.238281 4.75 -0.03125 C 4.238281 -0.3125 3.84375 -0.675781 3.5625 -1.125 L 3.5625 3.859375 L 1.703125 3.859375 L 1.703125 -8.5 C 1.703125 -8.65625 1.679688 -9.171875 1.640625 -10.046875 L 3.546875 -10.046875 C 3.566406 -9.359375 3.578125 -8.800781 3.578125 -8.375 C 3.941406 -8.976562 4.425781 -9.429688 5.03125 -9.734375 C 5.632812 -10.046875 6.296875 -10.203125 7.015625 -10.203125 C 8.285156 -10.203125 9.300781 -9.738281 10.0625 -8.8125 C 10.832031 -7.882812 11.21875 -6.613281 11.21875 -5 C 11.21875 -3.375 10.796875 -2.070312 9.953125 -1.09375 C 9.117188 -0.113281 8.019531 0.375 6.65625 0.375 Z M 9.265625 -5.125 C 9.265625 -7.570312 8.34375 -8.796875 6.5 -8.796875 C 5.539062 -8.796875 4.800781 -8.46875 4.28125 -7.8125 C 3.757812 -7.164062 3.5 -6.132812 3.5 -4.71875 C 3.5 -3.46875 3.738281 -2.535156 4.21875 -1.921875 C 4.695312 -1.304688 5.394531 -1 6.3125 -1 C 7.3125 -1 8.050781 -1.367188 8.53125 -2.109375 C 9.019531 -2.859375 9.265625 -3.863281 9.265625 -5.125 Z M 9.265625 -5.125 "/></g></g></g><g fill="#ffffff" fill-opacity="1"><g transform="translate(306.364786, 315.786426)"><g><path d="M 6.65625 0.375 C 5.894531 0.375 5.257812 0.238281 4.75 -0.03125 C 4.238281 -0.3125 3.84375 -0.675781 3.5625 -1.125 L 3.5625 3.859375 L 1.703125 3.859375 L 1.703125 -8.5 C 1.703125 -8.65625 1.679688 -9.171875 1.640625 -10.046875 L 3.546875 -10.046875 C 3.566406 -9.359375 3.578125 -8.800781 3.578125 -8.375 C 3.941406 -8.976562 4.425781 -9.429688 5.03125 -9.734375 C 5.632812 -10.046875 6.296875 -10.203125 7.015625 -10.203125 C 8.285156 -10.203125 9.300781 -9.738281 10.0625 -8.8125 C 10.832031 -7.882812 11.21875 -6.613281 11.21875 -5 C 11.21875 -3.375 10.796875 -2.070312 9.953125 -1.09375 C 9.117188 -0.113281 8.019531 0.375 6.65625 0.375 Z M 9.265625 -5.125 C 9.265625 -7.570312 8.34375 -8.796875 6.5 -8.796875 C 5.539062 -8.796875 4.800781 -8.46875 4.28125 -7.8125 C 3.757812 -7.164062 3.5 -6.132812 3.5 -4.71875 C 3.5 -3.46875 3.738281 -2.535156 4.21875 -1.921875 C 4.695312 -1.304688 5.394531 -1 6.3125 -1 C 7.3125 -1 8.050781 -1.367188 8.53125 -2.109375 C 9.019531 -2.859375 9.265625 -3.863281 9.265625 -5.125 Z M 9.265625 -5.125 "/></g></g></g></svg>